<svg xmlns="http://www.w3.org/2000/svg">
  <svg id="github-icon" xmlns="http://www.w3.org/2000/svg" xml:space="preserve" viewBox="0 0 512 512"><path d="M256 6.3C114.6 6.3 0 120.9 0 262.3c0 113.3 73.3 209 175 242.9 12.8 2.2 17.6-5.4 17.6-12.2 0-6.1-.3-26.2-.3-47.7-64.3 11.8-81-15.7-86.1-30.1-2.9-7.4-15.4-30.1-26.2-36.2-9-4.8-21.8-16.6-.3-17 20.2-.3 34.6 18.6 39.4 26.2 23 38.7 59.8 27.8 74.6 21.1 2.2-16.6 9-27.8 16.3-34.2-57-6.4-116.5-28.5-116.5-126.4 0-27.8 9.9-50.9 26.2-68.8-2.6-6.4-11.5-32.6 2.6-67.8 0 0 21.4-6.7 70.4 26.2 20.5-5.8 42.2-8.6 64-8.6s43.5 2.9 64 8.6c49-33.3 70.4-26.2 70.4-26.2 14.1 35.2 5.1 61.4 2.6 67.8 16.3 17.9 26.2 40.6 26.2 68.8 0 98.2-59.8 120-116.8 126.4 9.3 8 17.3 23.4 17.3 47.4 0 34.2-.3 61.8-.3 70.4 0 6.7 4.8 14.7 17.6 12.2C438.7 471.3 512 375.3 512 262.3c0-141.4-114.6-256-256-256" style="fill-rule:evenodd;clip-rule:evenodd;fill:var(--icon-color)"/></svg>
  <svg id="linkedin-icon" xmlns="http://www.w3.org/2000/svg" xml:space="preserve" viewBox="0 0 512 512" width="100%" height="100%"><path d="M455.1 0H56.9C25.5 0 0 25.5 0 56.9v398.2C0 486.5 25.5 512 56.9 512h398.2c31.4 0 56.9-25.5 56.9-56.9V56.9C512 25.5 486.5 0 455.1 0M154.8 440.9H78.5V194.4h76.4zm-38.5-278.8c-24.9 0-45.2-20.4-45.2-45.5s20.2-45.5 45.2-45.5 45.1 20.4 45.1 45.5-20.2 45.5-45.1 45.5m324.6 278.8h-76V311.5c0-35.5-13.5-55.3-41.6-55.3-30.5 0-46.5 20.6-46.5 55.3v129.4h-73.2V194.4h73.2v33.2s22-40.7 74.3-40.7 89.7 31.9 89.7 98v156z" style="fill-rule:evenodd;clip-rule:evenodd;fill:var(--icon-color)"/></svg>
  <svg id="mail-icon" xmlns="http://www.w3.org/2000/svg" xml:space="preserve" viewBox="0 0 512 512" width="100%" height="100%"><path d="M512 102.4c0-28.2-23-51.2-51.2-51.2H51.2C23 51.2 0 74.2 0 102.4v307.2c0 28.2 23 51.2 51.2 51.2h409.6c28.2 0 51.2-23 51.2-51.2zm-51.2 0L256 230.4l-204.8-128zm0 307.2H51.2v-256l204.8 128 204.8-128z" style="fill:var(--icon-color)"/></svg>
  <svg id="youtube-icon" xmlns="http://www.w3.org/2000/svg" xml:space="preserve" viewBox="0 0 512 512"><path d="M501.3 132.8c-5.9-22-23.2-39.4-45.3-45.3-39.9-10.7-200-10.7-200-10.7s-160.1 0-200 10.7c-22 5.9-39.4 23.2-45.3 45.3C0 172.7 0 256 0 256s0 83.3 10.7 123.2c5.9 22 23.2 39.4 45.3 45.3 39.9 10.7 200 10.7 200 10.7s160.1 0 200-10.7c22-5.9 39.4-23.2 45.3-45.3C512 339.3 512 256 512 256s0-83.3-10.7-123.2m-296.5 200V179.2l133 76.8z" style="fill:var(--icon-color)"/></svg>
</svg>
